
        <svg xmlns="http://www.w3.org/2000/svg" xmlns:xlink="http://www.w3.org/1999/xlink" version="1.1" width="3171.4285714285716" 
        height="2076.999642515221" viewBox="0 0 3171.4285714285716 2076.999642515221">
			
			<g transform="scale(8.571428571428571) translate(10, 10)">
				<defs id="SvgjsDefs9826"><linearGradient id="SvgjsLinearGradient9831"><stop id="SvgjsStop9832" stop-color="#7f00ff" offset="0"></stop><stop id="SvgjsStop9833" stop-color="#e100ff" offset="1"></stop></linearGradient><linearGradient id="SvgjsLinearGradient9834"><stop id="SvgjsStop9835" stop-color="#7f00ff" offset="0"></stop><stop id="SvgjsStop9836" stop-color="#e100ff" offset="1"></stop></linearGradient></defs><g id="SvgjsG9827" featureKey="mugSzh-0" transform="matrix(1.5607580028474566,0,0,1.5607580028474566,97.04013210164122,-13.890748606870078)" fill="url(#SvgjsLinearGradient9831)"><path xmlns="http://www.w3.org/2000/svg" d="M89.2,64.3c-2.4,0-4.4,1.5-5.2,3.5l-26-5.2c0-0.2,0-0.3,0-0.5c0-0.7-0.1-1.4-0.3-2.1l14-6.1c1.4,2.3,3.9,3.9,6.8,3.9  c4.4,0,8-3.6,8-8c0-3.2-1.9-6-4.7-7.2l1.9-6.5c0.2,0,0.4,0.1,0.6,0.1c1,0,2-0.4,2.7-1.1c1.6-1.5,1.7-4,0.2-5.6  c-0.7-0.8-1.8-1.2-2.9-1.2c-1,0-2,0.4-2.7,1.1c-0.8,0.7-1.2,1.7-1.2,2.8c0,1.1,0.3,2.1,1.1,2.8c0.4,0.4,0.8,0.7,1.3,0.9l-1.8,6.4  c-0.8-0.2-1.6-0.4-2.4-0.4c-2.2,0-4.2,0.9-5.6,2.3l-2-2c1.7-2.1,1.7-5.2-0.2-7.2c-1-1.1-2.5-1.7-4-1.7c-1.4,0-2.7,0.5-3.7,1.5  c-0.6,0.6-1.1,1.3-1.4,2.1l-8.4-1.4l1.1-15.8c2.7-0.3,4.8-2.6,4.8-5.4c0-3-2.4-5.4-5.4-5.4s-5.4,2.4-5.4,5.4c0,2.5,1.7,4.7,4.1,5.3  l-1.1,15.6L38,32.8c-0.1-0.9-0.4-1.7-1-2.4c-0.7-0.8-1.8-1.2-2.9-1.2c-0.8,0-1.6,0.3-2.3,0.7l-6.6-7.2c0.6-0.7,1-1.6,1-2.5  c0-2.2-1.8-4-4-4s-4,1.8-4,4s1.8,4,4,4c0.9,0,1.6-0.3,2.3-0.7l6.6,7.2c-1.2,1.5-1.3,3.6,0,5.1L25,45.6c-0.9-0.4-1.9-0.6-2.9-0.6  c-1.8,0-3.6,0.7-4.9,1.9c-0.3,0.3-0.6,0.6-0.8,0.9l-3.7-2.4c0.3-0.5,0.4-1.1,0.4-1.7c0-2.2-1.8-4-4-4s-4,1.8-4,4s1.8,4,4,4  c1.2,0,2.3-0.6,3-1.4l3.7,2.4c-1.5,2.6-1.1,6.1,1,8.4c0.3,0.3,0.5,0.5,0.8,0.7l-3.2,4.5c-0.7-0.3-1.5-0.5-2.3-0.5  c-3,0-5.5,2.4-5.5,5.5s2.4,5.5,5.5,5.5s5.5-2.4,5.5-5.5c0-1.4-0.6-2.8-1.5-3.7l3.4-4.6c0.8,0.3,1.7,0.5,2.7,0.5  c1.2,0,2.4-0.3,3.4-0.9L33.1,70c-0.9,0.7-1.4,1.8-1.4,3c0,2.2,1.8,4,4,4s4-1.8,4-4s-1.8-4-4-4c-0.6,0-1.2,0.2-1.7,0.4l-7.5-11.6  c0.2-0.2,0.4-0.3,0.6-0.5c2.9-2.7,3-7.2,0.3-10.1c-0.2-0.2-0.4-0.4-0.7-0.6l6-9.8c0.4,0.2,0.9,0.3,1.3,0.3c1,0,2-0.4,2.7-1.1  c0.4-0.4,0.7-0.8,0.9-1.2l13.4,2.3L50,54.5c-1.6,0.1-3,0.7-4.2,1.6L43.9,54c0.6-0.7,1-1.6,1-2.6c0-2.2-1.8-4-4-4s-4,1.8-4,4  s1.8,4,4,4c0.8,0,1.6-0.3,2.3-0.7l1.9,2.1c-1.3,1.4-2.1,3.2-2.1,5.3c0,4.1,3.2,7.4,7.2,7.6l0.3,12.2c-2.7,0.3-4.8,2.6-4.8,5.4  c0,3,2.4,5.4,5.4,5.4s5.4-2.4,5.4-5.4c0-2.9-2.2-5.2-5.1-5.4l-0.3-12.2c3-0.3,5.5-2.3,6.5-5.1l26,5.2c0,0,0,0.1,0,0.1  c0,3.1,2.5,5.6,5.6,5.6s5.6-2.5,5.6-5.6S92.2,64.3,89.2,64.3z M83,30.7c0.4-0.3,0.8-0.5,1.3-0.5c0.5,0,1.1,0.2,1.4,0.6  c0.7,0.8,0.7,2-0.1,2.8c-0.8,0.7-2.1,0.7-2.8-0.1c-0.4-0.4-0.5-0.9-0.5-1.4S82.6,31,83,30.7z M9.2,45.7c-1.1,0-2-0.9-2-2  c0-1.1,0.9-2,2-2s2,0.9,2,2C11.2,44.8,10.3,45.7,9.2,45.7z M12.2,70.6c-1.9,0-3.5-1.6-3.5-3.5s1.6-3.5,3.5-3.5s3.5,1.6,3.5,3.5  S14.1,70.6,12.2,70.6z M37.6,73.1c0,1.1-0.9,2-2,2c-1.1,0-2-0.9-2-2c0-1.1,0.9-2,2-2C36.7,71.1,37.6,72,37.6,73.1z M25.7,55.9  c-1,0.9-2.2,1.4-3.5,1.4c-1.4,0-2.8-0.6-3.8-1.6c-1.9-2.1-1.8-5.3,0.2-7.3c1-0.9,2.2-1.4,3.5-1.4c1.4,0,2.8,0.6,3.8,1.6  C27.9,50.7,27.8,54,25.7,55.9z M22.2,22.1c-1.1,0-2-0.9-2-2c0-1.1,0.9-2,2-2s2,0.9,2,2C24.1,21.2,23.3,22.1,22.2,22.1z M35.5,34.6  c-0.8,0.7-2.1,0.7-2.8-0.1c-0.7-0.8-0.7-2,0.1-2.8c0.4-0.3,0.8-0.5,1.3-0.5c0.5,0,1.1,0.2,1.4,0.6C36.3,32.6,36.2,33.8,35.5,34.6z   M78.5,43.8c3.3,0,6,2.7,6,6s-2.7,6-6,6s-6-2.7-6-6S75.2,43.8,78.5,43.8z M64.4,36.2c0.6-0.6,1.5-0.9,2.4-0.9c1,0,1.9,0.4,2.5,1.1  c1.3,1.4,1.2,3.6-0.2,4.9c-0.6,0.6-1.5,0.9-2.4,0.9c-1,0-1.9-0.4-2.5-1.1C62.9,39.6,63,37.5,64.4,36.2z M61.3,38.8  c0,1.3,0.5,2.6,1.5,3.6c1,1.1,2.5,1.7,4,1.7c1.3,0,2.5-0.5,3.5-1.3l2,2c-1,1.3-1.7,3-1.7,4.9c0,0.8,0.1,1.5,0.3,2.3l-14,6.1  c-1.1-1.8-2.9-3.1-5-3.5l1.2-17.3L61.3,38.8z M50.2,14.1c0-1.9,1.5-3.4,3.4-3.4s3.4,1.5,3.4,3.4s-1.5,3.4-3.4,3.4S50.2,16,50.2,14.1  z M40.9,53.4c-1.1,0-2-0.9-2-2c0-1.1,0.9-2,2-2s2,0.9,2,2C42.9,52.5,42,53.4,40.9,53.4z M54.5,87.3c0,1.9-1.5,3.4-3.4,3.4  s-3.4-1.5-3.4-3.4s1.5-3.4,3.4-3.4S54.5,85.4,54.5,87.3z M50.5,67.6c-3.1,0-5.6-2.5-5.6-5.6s2.5-5.6,5.6-5.6S56,59,56,62.1  S53.5,67.6,50.5,67.6z M89.2,73.4c-2,0-3.6-1.6-3.6-3.6s1.6-3.6,3.6-3.6s3.6,1.6,3.6,3.6S91.1,73.4,89.2,73.4z"></path></g><g id="SvgjsG9828" featureKey="PPkF4s-0" transform="matrix(3.6572621030134034,0,0,3.6572621030134034,-5.705326055552991,134.1034495026185)" fill="url(#SvgjsLinearGradient9834)"><path d="M14.7 20 l-3.14 0 l0 -5.68 l-6.86 0 l0 5.68 l-3.14 0 l0 -14.62 l3.14 0 l0 6.2 l6.86 0 l0 -6.2 l3.14 0 l0 14.62 z M19.44 24.12 l1.9 -4.52 l-4.72 -10.56 l3.46 0 l2.78 7 l2.56 -7 l3.46 0 l-6.14 15.08 l-3.3 0 z M33.64 10.1 q0.38 -0.52 1.31 -0.93 t2.03 -0.41 q1.7 0 2.95 0.76 t1.91 2.07 t0.66 2.91 t-0.66 2.91 t-1.91 2.07 t-2.95 0.76 q-1.14 0 -2.01 -0.39 t-1.33 -0.99 l0 4.68 l-2.96 0 l0 -14.54 l2.96 0 l0 1.1 z M34.34 16.75 q0.82 0.87 2.2 0.87 q1.4 0 2.21 -0.87 t0.81 -2.25 q0 -1.34 -0.83 -2.22 t-2.19 -0.88 q-1.4 0 -2.21 0.83 t-0.81 2.27 q0 1.38 0.82 2.25 z M47.75 19.74 q-1.37 -0.54 -2.35 -1.83 t-0.98 -3.37 t0.99 -3.36 t2.37 -1.82 t2.62 -0.54 q1.44 0 2.74 0.64 t2.13 1.88 t0.87 2.94 q0 0.52 -0.02 0.9 t-0.04 0.48 l-8.68 0 q0.24 1.16 1.2 1.58 t1.8 0.42 q1.08 0 1.72 -0.39 t1.1 -0.89 l2.32 1.34 q-1.88 2.56 -5.14 2.56 q-1.28 0 -2.65 -0.54 z M48.36 12.05 q-0.78 0.61 -0.88 1.49 l5.5 0 q-0.06 -0.52 -0.4 -1 t-0.91 -0.79 t-1.29 -0.31 q-1.24 0 -2.02 0.61 z M63.800000000000004 11.87 q-0.86 0.21 -1.58 0.99 t-0.72 2.28 l0 4.86 l-2.98 0 l0 -11 l2.98 0 l0 1.46 q0.74 -0.98 1.81 -1.33 t1.95 -0.33 l0 2.92 q-0.6 -0.06 -1.46 0.15 z M69.84 7.369999999999999 q-0.48 0.47 -1.16 0.47 q-0.7 0 -1.19 -0.47 t-0.49 -1.15 q0 -0.66 0.49 -1.13 t1.19 -0.47 q0.68 0 1.16 0.47 t0.48 1.13 q0 0.68 -0.48 1.15 z M67.18 9.02 l3 0 l0 10.98 l-3 0 l0 -10.98 z M75.59 19.49 q-1.37 -0.77 -2.17 -2.09 t-0.8 -2.88 q0 -1.54 0.8 -2.86 t2.17 -2.09 t2.99 -0.77 t3 0.77 t2.19 2.09 t0.81 2.86 q0 1.56 -0.81 2.88 t-2.19 2.09 t-3 0.77 t-2.99 -0.77 z M77.06 11.83 q-0.7 0.41 -1.1 1.12 t-0.4 1.57 q0 0.9 0.39 1.61 t1.08 1.12 t1.55 0.41 q0.84 0 1.53 -0.41 t1.09 -1.13 t0.4 -1.6 q0 -0.86 -0.4 -1.57 t-1.09 -1.12 t-1.53 -0.41 q-0.82 0 -1.52 0.41 z M96.23 10.02 q1.03 1.22 1.03 3.48 l0 6.5 l-3.06 0 l0 -6.5 q0 -2.22 -2.12 -2.22 q-0.82 0 -1.48 0.65 t-0.62 2.25 l0 5.82 l-2.98 0 l0 -11 l2.98 0 l0 0.98 q0.54 -0.54 1.36 -0.86 t1.58 -0.32 q2.28 0 3.31 1.22 z"></path></g>
			</g>
		</svg>
	